# xmcd
#
# Track frame offsets: 
#        151
#        25978
#        45047
#        64507
#        88067
#        110656
#        128491
#        146762
#        166789
#        184986
#        206151
#        227842
#        241895
#        265064
#        284951
#        302900
#
# Disc length: 4361 seconds
#
# Revision: 0
# Processed by: cddbd v1.5.2PL0 Copyright (c) Steve Scherf et al.
# Submitted via: ExactAudioCopy v0.95b4
#
DISCID=e5110710
DTITLE=Various Artist - Baladas en Ingles - 2
DYEAR=2001
DGENRE=Ballad
TTITLE0=Air Supply - Making love out of nothing at all
TTITLE1=Cheap Trick - Ghost town
TTITLE2=Paul Young - Every time you go away
TTITLE3=Elton John - Little Jeannie
TTITLE4=Rockwell - Cuts like a knife
TTITLE5=Kool and The Gang - Cherish
TTITLE6=John Waite - Missing you
TTITLE7=Stevie Wonder - I just call to say I love you
TTITLE8=Lionel Ritchie - Say you, say me
TTITLE9=Phil Collins - One more night
TTITLE10=Foreigner - Waiting for a girl like you
TTITLE11=Olivia Newton-John - Hopelessly devoted to you
TTITLE12=Chicago - Hard to say I'm sorry
TTITLE13=Styx - Babe
TTITLE14=Cyndi Lauper - Time after time
TTITLE15=Pat Benatar - Love is a battlefield
EXTD=
EXTT0=
EXTT1=
EXTT2=
EXTT3=
EXTT4=
EXTT5=
EXTT6=
EXTT7=
EXTT8=
EXTT9=
EXTT10=
EXTT11=
EXTT12=
EXTT13=
EXTT14=
EXTT15=
PLAYORDER=
